<svg width="42" height="36" viewBox="0 0 42 36" fill="none" xmlns="http://www.w3.org/2000/svg">
<rect y="0.5" width="42" height="35" rx="4" fill="#6AAFEA" fill-opacity="0.3"/>
<path d="M21 8C26.523 8 31 12.477 31 18C31 23.523 26.523 28 21 28C15.477 28 11 23.523 11 18C11 12.477 15.477 8 21 8ZM21 10C18.8783 10 16.8434 10.8429 15.3431 12.3431C13.8429 13.8434 13 15.8783 13 18C13 20.1217 13.8429 22.1566 15.3431 23.6569C16.8434 25.1571 18.8783 26 21 26C23.1217 26 25.1566 25.1571 26.6569 23.6569C28.1571 22.1566 29 20.1217 29 18C29 15.8783 28.1571 13.8434 26.6569 12.3431C25.1566 10.8429 23.1217 10 21 10ZM21 12C21.2449 12 21.4813 12.09 21.6644 12.2527C21.8474 12.4155 21.9643 12.6397 21.993 12.883L22 13V17.586L24.707 20.293C24.8863 20.473 24.9905 20.7144 24.9982 20.9684C25.006 21.2223 24.9168 21.4697 24.7488 21.6603C24.5807 21.8508 24.3464 21.9703 24.0935 21.9944C23.8406 22.0185 23.588 21.9454 23.387 21.79L23.293 21.707L20.293 18.707C20.1376 18.5514 20.0378 18.349 20.009 18.131L20 18V13C20 12.7348 20.1054 12.4804 20.2929 12.2929C20.4804 12.1054 20.7348 12 21 12Z" fill="#007AFF"/>
</svg>
