<svg width="42" height="36" viewBox="0 0 42 36" fill="none" xmlns="http://www.w3.org/2000/svg">
<rect y="0.5" width="42" height="35" rx="4" fill="#47F754" fill-opacity="0.3"/>
<path d="M18 15.9998L21.258 18.4438C21.4598 18.5952 21.7114 18.6647 21.9624 18.6383C22.2133 18.612 22.445 18.4918 22.611 18.3018L29 10.9998" stroke="#47F754" stroke-width="2" stroke-linecap="round"/>
<path d="M30 17.9998C30 19.8804 29.411 21.7137 28.3157 23.2423C27.2203 24.7708 25.6736 25.9179 23.8929 26.5224C22.1122 27.1269 20.1868 27.1583 18.3873 26.6124C16.5878 26.0665 15.0044 24.9706 13.8597 23.4787C12.7149 21.9867 12.0663 20.1736 12.0048 18.2941C11.9434 16.4146 12.4722 14.563 13.517 12.9995C14.5619 11.4359 16.0702 10.239 17.8303 9.57665C19.5903 8.91435 21.5136 8.81999 23.33 9.30684" stroke="#47F754" stroke-width="2" stroke-linecap="round"/>
</svg>
