<svg width="98" height="99" viewBox="0 0 98 99" fill="none" xmlns="http://www.w3.org/2000/svg">
<path d="M94 83.25H90.25V8.25C90.25 7.25544 89.8549 6.30161 89.1517 5.59835C88.4484 4.89509 87.4946 4.5 86.5 4.5H60.25C59.2554 4.5 58.3016 4.89509 57.5983 5.59835C56.8951 6.30161 56.5 7.25544 56.5 8.25V27H34C33.0054 27 32.0516 27.3951 31.3484 28.0984C30.6451 28.8016 30.25 29.7554 30.25 30.75V49.5H11.5C10.5054 49.5 9.55161 49.8951 8.84835 50.5983C8.14509 51.3016 7.75 52.2554 7.75 53.25V83.25H4C3.00544 83.25 2.05161 83.6451 1.34835 84.3483C0.645088 85.0516 0.25 86.0054 0.25 87C0.25 87.9946 0.645088 88.9484 1.34835 89.6517C2.05161 90.3549 3.00544 90.75 4 90.75H94C94.9946 90.75 95.9484 90.3549 96.6517 89.6517C97.3549 88.9484 97.75 87.9946 97.75 87C97.75 86.0054 97.3549 85.0516 96.6517 84.3483C95.9484 83.6451 94.9946 83.25 94 83.25ZM64 12H82.75V83.25H64V12ZM37.75 34.5H56.5V83.25H37.75V34.5ZM15.25 57H30.25V83.25H15.25V57Z" fill="white"/>
</svg>
