<svg width="100" height="100" viewBox="0 0 100 100" fill="none" xmlns="http://www.w3.org/2000/svg">
<path fill-rule="evenodd" clip-rule="evenodd" d="M59.3286 5.64038C54.7925 4.37592 50.5462 5.73955 47.529 8.51228C44.5533 11.2396 42.7571 15.3139 42.7571 19.6693V47.3346C42.7571 49.8498 43.7578 52.2619 45.5391 54.0404C47.3204 55.8189 49.7363 56.8181 52.2555 56.8181H79.9601C84.3265 56.8181 88.4114 55.0247 91.1388 52.0536C93.9118 49.0412 95.2817 44.8015 94.0153 40.2726C91.6946 32.0147 87.2855 24.4916 81.2116 18.4265C75.1377 12.3615 67.6033 7.95833 59.3327 5.64038M48.9652 19.6693C48.9652 16.9751 50.0826 14.5784 51.7298 13.0701C53.3274 11.6032 55.3968 10.971 57.6606 11.6032C72.3531 15.6982 83.9375 27.2643 88.0389 41.9338C88.6722 44.1982 88.0389 46.2643 86.5697 47.8594C85.059 49.4999 82.6586 50.6156 79.9601 50.6156H52.2555C51.3828 50.6156 50.5459 50.2695 49.9289 49.6534C49.3118 49.0373 48.9652 48.2017 48.9652 47.3305V19.6693Z" fill="white"/>
<path d="M36.2262 19.4877C37.0121 19.2412 37.6678 18.693 38.0488 17.9637C38.4299 17.2345 38.5053 16.384 38.2583 15.5993C38.0113 14.8146 37.4623 14.16 36.7319 13.7795C36.0015 13.399 35.1497 13.3238 34.3638 13.5704C17.6474 18.8183 5.50854 34.4134 5.50854 52.8514C5.50854 75.5828 23.9673 94.0125 46.7303 94.0125C55.5053 94.0156 64.0524 91.2227 71.1277 86.0403C78.203 80.8579 83.4373 73.5565 86.0689 65.1985C86.2074 64.8063 86.2654 64.3903 86.2394 63.9752C86.2135 63.5602 86.1042 63.1546 85.9179 62.7826C85.7317 62.4106 85.4724 62.0799 85.1555 61.81C84.8386 61.5402 84.4705 61.3368 84.0732 61.212C83.6759 61.0872 83.2575 61.0434 82.8429 61.0834C82.4283 61.1234 82.026 61.2463 81.66 61.4448C81.294 61.6433 80.9717 61.9132 80.7124 62.2387C80.4531 62.5641 80.262 62.9383 80.1506 63.339C77.9124 70.437 73.4654 76.6373 67.4559 81.0389C61.4464 85.4405 54.1876 87.8139 46.7344 87.8142C42.136 87.8147 37.5826 86.9109 33.334 85.1543C29.0855 83.3977 25.2251 80.8228 21.9734 77.5765C18.7216 74.3302 16.1422 70.4762 14.3823 66.2346C12.6224 61.9929 11.7166 57.4467 11.7166 52.8555C11.7166 45.4146 14.0932 38.1676 18.5009 32.1676C22.9086 26.1675 29.1178 21.7231 36.2262 19.4877Z" fill="white"/>
</svg>
