<svg width="24" height="25" viewBox="0 0 24 25" fill="none" xmlns="http://www.w3.org/2000/svg">
<g clip-path="url(#clip0_379_28735)">
<path d="M7.42383 21.5C7.81149 22.3914 8.45106 23.1502 9.26398 23.6831C10.0769 24.216 11.0278 24.4999 11.9998 24.4999C12.9719 24.4999 13.9228 24.216 14.7357 23.6831C15.5486 23.1502 16.1882 22.3914 16.5758 21.5H7.42383Z" fill="#BABABA"/>
<path d="M22.3923 13.0489L20.6563 7.32593C20.1004 5.32428 18.8917 3.5657 17.2222 2.32943C15.5526 1.09316 13.518 0.450047 11.4412 0.502208C9.36444 0.554368 7.36462 1.29881 5.75927 2.61734C4.15391 3.93586 3.03504 5.75289 2.5803 7.77993L1.2323 13.3169C1.05313 14.0527 1.04342 14.8195 1.20391 15.5596C1.36439 16.2996 1.69087 16.9936 2.15872 17.589C2.62656 18.1845 3.22354 18.6659 3.90461 18.9969C4.58568 19.3279 5.33304 19.4999 6.0903 19.4999H17.6073C18.388 19.5 19.1579 19.3172 19.8553 18.9662C20.5527 18.6152 21.1582 18.1057 21.6233 17.4787C22.0884 16.8516 22.4003 16.1243 22.5338 15.3551C22.6673 14.5859 22.6189 13.7961 22.3923 13.0489Z" fill="#BABABA"/>
</g>
<defs>
<clipPath id="clip0_379_28735">
<rect width="24" height="24" fill="white" transform="translate(0 0.5)"/>
</clipPath>
</defs>
</svg>
