<svg width="50" height="36" viewBox="0 0 50 36" fill="none" xmlns="http://www.w3.org/2000/svg">
<path d="M38.0174 11.8535H1.24172C0.558775 11.8535 0 12.4123 0 13.0952V34.0596C0 34.7426 0.558775 35.3014 1.24172 35.3014H38.0174C38.7003 35.3014 39.2591 34.7426 39.2591 34.0596V13.0952C39.2591 12.4123 38.7003 11.8535 38.0174 11.8535ZM36.7757 32.8179H2.48344V14.337H36.7757V32.8179Z" fill="#002F3D"/>
<path d="M8.36086 24.7881H11.4445C12.1274 24.7881 12.6862 24.2294 12.6862 23.5464C12.6862 22.8635 12.1274 22.3047 11.4445 22.3047H8.36086C7.67792 22.3047 7.11914 22.8635 7.11914 23.5464C7.11914 24.2294 7.66757 24.7881 8.36086 24.7881Z" fill="#002F3D"/>
<path d="M43.3773 6.25488H6.60159C5.91864 6.25488 5.35986 6.81366 5.35986 7.4966C5.35986 8.17955 5.91864 8.73833 6.60159 8.73833H42.1355V28.461C42.1355 29.144 42.6943 29.7027 43.3773 29.7027C44.0602 29.7027 44.619 29.144 44.619 28.461V7.4966C44.619 6.81366 44.0602 6.25488 43.3773 6.25488Z" fill="#002F3D"/>
<path d="M48.7581 0.698242H11.9824C11.2995 0.698242 10.7407 1.25702 10.7407 1.93996C10.7407 2.62291 11.2995 3.18169 11.9824 3.18169H47.5164V22.9044C47.5164 23.5873 48.0752 24.1461 48.7581 24.1461C49.4411 24.1461 49.9998 23.5873 49.9998 22.9044V1.93996C49.9998 1.25702 49.4411 0.698242 48.7581 0.698242Z" fill="#002F3D"/>
<path d="M27.8145 24.7881H30.8981C31.581 24.7881 32.1398 24.2294 32.1398 23.5464C32.1398 22.8635 31.581 22.3047 30.8981 22.3047H27.8145C27.1315 22.3047 26.5728 22.8635 26.5728 23.5464C26.5728 24.2294 27.1315 24.7881 27.8145 24.7881Z" fill="#002F3D"/>
<path d="M18.657 24.808H20.6024C21.0887 24.808 21.4923 25.2012 21.4923 25.6979C21.4923 26.1946 21.0991 26.5878 20.6024 26.5878H17.1152C16.4323 26.5878 15.8735 27.1466 15.8735 27.8296C15.8735 28.5125 16.4323 29.0713 17.1152 29.0713H18.388V29.8887C18.388 30.5717 18.9468 31.1305 19.6297 31.1305C20.3127 31.1305 20.8714 30.5717 20.8714 29.8887V29.0609C22.5995 28.9264 23.9757 27.4674 23.9757 25.6979C23.9757 23.8354 22.465 22.3246 20.6024 22.3246H18.657C18.1707 22.3246 17.7671 21.9314 17.7671 21.4347C17.7671 20.9484 18.1603 20.5448 18.657 20.5448H22.0821C22.7651 20.5448 23.3238 19.986 23.3238 19.3031C23.3238 18.6201 22.7651 18.0613 22.0821 18.0613H20.8714V17.2749C20.8714 16.592 20.3127 16.0332 19.6297 16.0332C18.9468 16.0332 18.388 16.592 18.388 17.2749V18.082C16.6599 18.2166 15.2837 19.6756 15.2837 21.445C15.2837 23.2973 16.7945 24.808 18.657 24.808Z" fill="#002F3D"/>
</svg>
