<svg width="20" height="20" viewBox="0 0 20 20" fill="none" xmlns="http://www.w3.org/2000/svg">
<g clip-path="url(#clip0_81_1765)">
<path d="M2 14.6665C2.00106 15.5502 2.35259 16.3975 2.97748 17.0224C3.60237 17.6472 4.4496 17.9988 5.33333 17.9998H14.6667C15.5504 17.9988 16.3976 17.6472 17.0225 17.0224C17.6474 16.3975 17.9989 15.5502 18 14.6665V8.6665H2V14.6665ZM13.3333 11.6665C13.5311 11.6665 13.7245 11.7252 13.8889 11.835C14.0534 11.9449 14.1815 12.1011 14.2572 12.2838C14.3329 12.4665 14.3527 12.6676 14.3141 12.8616C14.2755 13.0556 14.1803 13.2338 14.0404 13.3736C13.9006 13.5135 13.7224 13.6087 13.5284 13.6473C13.3344 13.6859 13.1334 13.6661 12.9507 13.5904C12.7679 13.5147 12.6117 13.3865 12.5019 13.2221C12.392 13.0576 12.3333 12.8643 12.3333 12.6665C12.3333 12.4013 12.4387 12.1469 12.6262 11.9594C12.8138 11.7719 13.0681 11.6665 13.3333 11.6665ZM10 11.6665C10.1978 11.6665 10.3911 11.7252 10.5556 11.835C10.72 11.9449 10.8482 12.1011 10.9239 12.2838C10.9996 12.4665 11.0194 12.6676 10.9808 12.8616C10.9422 13.0556 10.847 13.2338 10.7071 13.3736C10.5673 13.5135 10.3891 13.6087 10.1951 13.6473C10.0011 13.6859 9.80004 13.6661 9.61732 13.5904C9.43459 13.5147 9.27841 13.3865 9.16853 13.2221C9.05865 13.0576 9 12.8643 9 12.6665C9 12.4013 9.10536 12.1469 9.29289 11.9594C9.48043 11.7719 9.73478 11.6665 10 11.6665ZM6.66667 11.6665C6.86445 11.6665 7.05779 11.7252 7.22224 11.835C7.38669 11.9449 7.51486 12.1011 7.59055 12.2838C7.66623 12.4665 7.68604 12.6676 7.64745 12.8616C7.60887 13.0556 7.51363 13.2338 7.37377 13.3736C7.23392 13.5135 7.05574 13.6087 6.86176 13.6473C6.66778 13.6859 6.46671 13.6661 6.28398 13.5904C6.10126 13.5147 5.94508 13.3865 5.8352 13.2221C5.72532 13.0576 5.66667 12.8643 5.66667 12.6665C5.66667 12.4013 5.77202 12.1469 5.95956 11.9594C6.1471 11.7719 6.40145 11.6665 6.66667 11.6665V11.6665Z" fill="#858D9D"/>
<path d="M14.6667 3.33333H14V2.66667C14 2.48986 13.9298 2.32029 13.8047 2.19526C13.6797 2.07024 13.5101 2 13.3333 2C13.1565 2 12.987 2.07024 12.8619 2.19526C12.7369 2.32029 12.6667 2.48986 12.6667 2.66667V3.33333H7.33333V2.66667C7.33333 2.48986 7.2631 2.32029 7.13807 2.19526C7.01305 2.07024 6.84348 2 6.66667 2C6.48986 2 6.32029 2.07024 6.19526 2.19526C6.07024 2.32029 6 2.48986 6 2.66667V3.33333H5.33333C4.4496 3.33439 3.60237 3.68592 2.97748 4.31081C2.35259 4.93571 2.00106 5.78294 2 6.66667L2 7.33333H18V6.66667C17.9989 5.78294 17.6474 4.93571 17.0225 4.31081C16.3976 3.68592 15.5504 3.33439 14.6667 3.33333V3.33333Z" fill="#858D9D"/>
</g>
<defs>
<clipPath id="clip0_81_1765">
<rect width="16" height="16" fill="white" transform="translate(2 2)"/>
</clipPath>
</defs>
</svg>
