<svg width="24" height="25" viewBox="0 0 24 25" fill="none" xmlns="http://www.w3.org/2000/svg">
<g clip-path="url(#clip0_379_28741)">
<path d="M23.954 6.04175L15.536 14.4597C14.5974 15.396 13.3257 15.9218 12 15.9218C10.6743 15.9218 9.40263 15.396 8.464 14.4597L0.046 6.04175C0.032 6.19975 0 6.34275 0 6.49975V18.4997C0.00158786 19.8253 0.528882 21.0962 1.46622 22.0335C2.40356 22.9709 3.67441 23.4982 5 23.4997H19C20.3256 23.4982 21.5964 22.9709 22.5338 22.0335C23.4711 21.0962 23.9984 19.8253 24 18.4997V6.49975C24 6.34275 23.968 6.19975 23.954 6.04175Z" fill="#BABABA"/>
<path d="M14.1221 13.0458L23.2561 3.91076C22.8137 3.17707 22.1896 2.56979 21.4441 2.14749C20.6986 1.72518 19.8569 1.5021 19.0001 1.49976H5.00014C4.14336 1.5021 3.30164 1.72518 2.55617 2.14749C1.81069 2.56979 1.18662 3.17707 0.744141 3.91076L9.87814 13.0458C10.4417 13.6071 11.2047 13.9222 12.0001 13.9222C12.7956 13.9222 13.5586 13.6071 14.1221 13.0458Z" fill="#BABABA"/>
</g>
<defs>
<clipPath id="clip0_379_28741">
<rect width="24" height="24" fill="white" transform="translate(0 0.5)"/>
</clipPath>
</defs>
</svg>
