<svg width="73" height="60" viewBox="0 0 73 60" fill="none" xmlns="http://www.w3.org/2000/svg">
<path opacity="0.21" fill-rule="evenodd" clip-rule="evenodd" d="M0.200195 30V37C0.200195 49.7025 10.4976 60 23.2002 60H36.2002H49.2002C61.9027 60 72.2002 49.7025 72.2002 37V30V23C72.2002 10.2975 61.9027 0 49.2002 0H36.2002H23.2002C10.4976 0 0.200195 10.2975 0.200195 23V30Z" fill="#FEC53D"/>
<path fill-rule="evenodd" clip-rule="evenodd" d="M18.2002 24.3164L33.6808 31.7645C33.8475 31.8447 34.0223 31.9026 34.2002 31.9394V46.3846L19.3043 39.0385C18.6199 38.701 18.2002 38.0875 18.2002 37.4248V24.3164ZM54.2006 24.1184V37.4248C54.2006 38.0875 53.7808 38.701 53.0965 39.0385L38.2006 46.3846V31.8129C38.2369 31.7978 38.2728 31.7816 38.3084 31.7645L54.2006 24.1184Z" fill="#FEC53D"/>
<path opacity="0.499209" fill-rule="evenodd" clip-rule="evenodd" d="M18.6865 20.7014C18.8756 20.5024 19.1143 20.3343 19.3925 20.2108L35.1425 13.2201C35.8037 12.9266 36.5968 12.9266 37.258 13.2201L53.008 20.2108C53.2225 20.306 53.4134 20.4277 53.5763 20.5697L36.3081 28.8778C36.1946 28.9325 36.0899 28.995 35.9945 29.064C35.8991 28.995 35.7944 28.9325 35.6808 28.8778L18.6865 20.7014Z" fill="#FEC53D"/>
</svg>
