<svg width="73" height="60" viewBox="0 0 73 60" fill="none" xmlns="http://www.w3.org/2000/svg">
<path opacity="0.21" fill-rule="evenodd" clip-rule="evenodd" d="M0.200195 30V37C0.200195 49.7025 10.4976 60 23.2002 60H36.2002H49.2002C61.9027 60 72.2002 49.7025 72.2002 37V30V23C72.2002 10.2975 61.9027 0 49.2002 0H36.2002H23.2002C10.4976 0 0.200195 10.2975 0.200195 23V30Z" fill="#8280FF"/>
<path opacity="0.587821" fill-rule="evenodd" clip-rule="evenodd" d="M25.0005 23.3333C25.0005 26.2789 27.8659 28.6667 31.4005 28.6667C34.9351 28.6667 37.8005 26.2789 37.8005 23.3333C37.8005 20.3878 34.9351 18 31.4005 18C27.8659 18 25.0005 20.3878 25.0005 23.3333ZM41.0001 28.6666C41.0001 30.8758 43.1491 32.6666 45.8001 32.6666C48.4511 32.6666 50.6001 30.8758 50.6001 28.6666C50.6001 26.4575 48.4511 24.6666 45.8001 24.6666C43.1491 24.6666 41.0001 26.4575 41.0001 28.6666Z" fill="#8280FF"/>
<path fill-rule="evenodd" clip-rule="evenodd" d="M31.3733 31.3333C23.8191 31.3333 17.6212 34.5686 17.001 40.9322C16.9673 41.2788 17.7627 41.9999 18.164 41.9999H44.5947C45.7967 41.9999 45.8153 41.1939 45.7967 40.9333C45.3278 34.3908 39.0339 31.3333 31.3733 31.3333ZM54.5301 41.9999H48.3602C48.3601 38.9987 47.1702 36.229 45.162 34.0007C50.6127 34.0502 55.0633 36.3466 55.3982 41.1999C55.4117 41.3954 55.3982 41.9999 54.5301 41.9999Z" fill="#8280FF"/>
</svg>
