<svg width="24" height="20" viewBox="0 0 24 20" fill="none" xmlns="http://www.w3.org/2000/svg">
<path d="M18.5625 9.16675H5.4375C4.40197 9.16675 3.5625 9.91294 3.5625 10.8334V16.6667C3.5625 17.5872 4.40197 18.3334 5.4375 18.3334H18.5625C19.598 18.3334 20.4375 17.5872 20.4375 16.6667V10.8334C20.4375 9.91294 19.598 9.16675 18.5625 9.16675Z" stroke="#002F3D" stroke-linecap="round" stroke-linejoin="round"/>
<path d="M7.3125 9.16675V5.83341C7.3125 4.72835 7.80636 3.66854 8.68544 2.88714C9.56451 2.10573 10.7568 1.66675 12 1.66675C13.2432 1.66675 14.4355 2.10573 15.3146 2.88714C16.1936 3.66854 16.6875 4.72835 16.6875 5.83341V9.16675" stroke="#002F3D" stroke-linecap="round" stroke-linejoin="round"/>
</svg>
