<svg width="73" height="60" viewBox="0 0 73 60" fill="none" xmlns="http://www.w3.org/2000/svg">
<path opacity="0.21" fill-rule="evenodd" clip-rule="evenodd" d="M0.200195 30V37C0.200195 49.7025 10.4976 60 23.2002 60H36.2002H49.2002C61.9027 60 72.2002 49.7025 72.2002 37V30V23C72.2002 10.2975 61.9027 0 49.2002 0H36.2002H23.2002C10.4976 0 0.200195 10.2975 0.200195 23V30Z" fill="#4AD991"/>
<path d="M23.1337 40.8889H51.1337C52.1647 40.8889 53.0004 41.5853 53.0004 42.4444C53.0004 43.3036 52.1647 44 51.1337 44H21.2671C20.2361 44 19.4004 43.3036 19.4004 42.4444V17.5556C19.4004 16.6964 20.2361 16 21.2671 16C22.298 16 23.1337 16.6964 23.1337 17.5556V40.8889Z" fill="#4AD991"/>
<path opacity="0.5" d="M30.0962 34.175C29.3911 34.8017 28.2098 34.8335 27.4577 34.2459C26.7056 33.6583 26.6674 32.6739 27.3725 32.0472L34.3725 25.8249C35.0545 25.2188 36.1876 25.1662 36.946 25.7056L42.4709 29.6343L49.6692 22.0361C50.308 21.3618 51.4819 21.2467 52.291 21.779C53.1002 22.3114 53.2383 23.2895 52.5995 23.9638L44.1995 32.8305C43.5434 33.5231 42.3281 33.6227 41.5227 33.0499L35.8778 29.0358L30.0962 34.175Z" fill="#4AD991"/>
</svg>
