<svg width="50" height="36" viewBox="0 0 50 36" fill="none" xmlns="http://www.w3.org/2000/svg">
<path d="M45.3964 0.841797H4.60359C2.06529 0.841797 0 2.90708 0 5.44539V30.5545C0 33.0928 2.06529 35.1581 4.60359 35.1581H45.3964C47.9347 35.1581 50 33.0928 50 30.5545V5.44539C50 2.90689 47.9347 0.841797 45.3964 0.841797ZM47.1228 30.5545C47.1228 31.5063 46.3484 32.2809 45.3964 32.2809H4.60359C3.65161 32.2809 2.87725 31.5063 2.87725 30.5545V5.44539C2.87725 4.4936 3.65161 3.71904 4.60359 3.71904H45.3964C46.3484 3.71904 47.1228 4.4936 47.1228 5.44539V30.5545Z" fill="white"/>
<path d="M41.4398 9.05566H28.2173C27.5816 9.05566 27.0664 9.57107 27.0664 10.2066C27.0664 10.842 27.5816 11.3575 28.2173 11.3575H41.4398C42.0755 11.3575 42.5907 10.842 42.5907 10.2066C42.5907 9.57107 42.0755 9.05566 41.4398 9.05566Z" fill="white"/>
<path d="M41.4398 24.6426H28.2173C27.5816 24.6426 27.0664 25.1578 27.0664 25.7935C27.0664 26.429 27.5816 26.9444 28.2173 26.9444H41.4398C42.0755 26.9444 42.5907 26.429 42.5907 25.7935C42.5907 25.1578 42.0755 24.6426 41.4398 24.6426Z" fill="white"/>
<path d="M41.4402 15.7129H33.438C32.8025 15.7129 32.2871 16.2283 32.2871 16.8638C32.2871 17.4993 32.8025 18.0147 33.438 18.0147H41.4402C42.0759 18.0147 42.5911 17.4993 42.5911 16.8638C42.5911 16.2283 42.0759 15.7129 41.4402 15.7129Z" fill="white"/>
<path d="M41.4402 20.1777H33.438C32.8025 20.1777 32.2871 20.6931 32.2871 21.3286C32.2871 21.9643 32.8025 22.4795 33.438 22.4795H41.4402C42.0759 22.4795 42.5911 21.9643 42.5911 21.3286C42.5911 20.6931 42.0759 20.1777 41.4402 20.1777Z" fill="white"/>
<path d="M16.3354 18.538C19.5971 18.538 22.2506 15.8835 22.2506 12.6207C22.2506 9.35767 19.5971 6.70312 16.3354 6.70312C13.0728 6.70312 10.4185 9.35767 10.4185 12.6207C10.4185 15.8835 13.0728 18.538 16.3354 18.538ZM16.3354 9.58056C18.0105 9.58056 19.3734 10.9444 19.3734 12.6209C19.3734 14.2971 18.0107 15.6609 16.3354 15.6609C14.6593 15.6609 13.2957 14.2971 13.2957 12.6209C13.2957 10.9444 14.6593 9.58056 16.3354 9.58056Z" fill="white"/>
<path d="M18.6249 19.6006H14.0823C10.8997 19.6006 8.31055 22.1895 8.31055 25.372V27.8581C8.31055 28.6526 8.95447 29.2967 9.74917 29.2967C10.5439 29.2967 11.1878 28.6526 11.1878 27.8581V25.372C11.1878 23.7762 12.4864 22.4778 14.0823 22.4778H18.6249C20.2208 22.4778 21.5194 23.776 21.5194 25.372V27.8581C21.5194 28.6526 22.1633 29.2967 22.958 29.2967C23.7527 29.2967 24.3966 28.6526 24.3966 27.8581V25.372C24.3966 22.1895 21.8073 19.6006 18.6249 19.6006Z" fill="white"/>
</svg>
