<svg width="31" height="29" viewBox="0 0 31 29" fill="none" xmlns="http://www.w3.org/2000/svg">
<path fill-rule="evenodd" clip-rule="evenodd" d="M4.84143 25.7856C4.84143 26.6664 5.03064 27.3098 5.42671 27.6958C5.81018 28.0694 6.42574 28.2179 7.28853 28.1239L7.33394 28.1214H26.1792C26.1792 19.5154 26.159 11.8299 26.159 3.21653H26.1615C26.1615 2.33564 25.9698 1.6923 25.5762 1.30629C25.1927 0.932658 24.5772 0.784194 23.7144 0.878221L23.669 0.880696H4.82377C4.82125 9.4743 4.84143 17.1771 4.84143 25.7856ZM12.8437 10.7239V3.86235H16.4437C17.1123 3.86235 17.6219 3.91926 17.9751 4.03061C18.3282 4.14196 18.6133 4.35228 18.8303 4.65416C19.0472 4.95851 19.1532 5.33215 19.1532 5.76764C19.1532 6.1487 19.0699 6.47532 18.9034 6.75245C18.5704 7.30919 18.1693 7.52942 17.5487 7.66798L18.9438 9.93948L20.1472 7.82882H22.5009L20.3263 11.1519L22.7053 14.6879H20.2733L18.9009 12.4832L17.5184 14.6879H15.1066L17.5184 11.1124C17.2182 10.6422 15.9921 8.27916 15.7298 8.09853C15.5759 7.99213 15.3968 7.94017 15.2 7.94017H15.0083V10.7189H12.8437V10.7239ZM15.0133 6.651H15.9266C16.0249 6.651 16.2167 6.61884 16.4992 6.55698C16.643 6.52976 16.7591 6.458 16.8499 6.3417C16.9407 6.22541 16.9861 6.09179 16.9861 5.94332C16.9861 5.72063 16.9155 5.54989 16.7717 5.43112C16.6279 5.31235 16.3605 5.25297 15.9644 5.25297H15.0133V6.651ZM27.0016 24.7859H29.9255C30.2434 24.7859 29.9785 24.7884 30.0769 24.7859C30.5057 24.7834 30.7 24.7834 30.8766 25.0086C31.0153 25.1843 31.0052 25.3402 30.9926 25.6222C30.9876 25.7138 30.9825 25.8301 30.9825 26.0058C30.9825 27.4286 30.483 28.2377 29.6379 28.6608C28.8937 29.032 27.9022 29.0592 26.7644 28.9281H7.34908C6.23905 29.0443 5.4141 28.8167 4.849 28.2674C4.29146 27.7255 4.02152 26.8891 4.02152 25.7856H4.019C4.019 18.2931 3.99882 11.7161 3.99882 4.21372H1.07491C0.757036 4.21372 1.02193 4.21124 0.92354 4.21372C0.494666 4.21619 0.300411 4.21619 0.123816 3.99102C-0.014937 3.81534 -0.00484581 3.65945 0.00776812 3.37737C0.0128137 3.28582 0.0178593 3.16952 0.0178593 2.99384C0.0178593 1.57105 0.517371 0.761924 1.3625 0.338801C2.10673 -0.032359 3.09818 -0.0595775 4.23596 0.0715659H23.6538C24.7639 -0.044731 25.5913 0.182914 26.1539 0.732231C26.7115 1.27413 26.9814 2.11047 26.9814 3.21406H26.9839C26.9814 10.6892 27.0016 17.2909 27.0016 24.7859ZM3.99882 3.40706V0.858426C3.07295 0.75945 2.28584 0.786668 1.73588 1.05885C1.17582 1.33846 0.84281 1.92489 0.84281 2.99384C0.84281 3.14725 0.835242 3.29571 0.830196 3.41696C0.825151 3.50851 0.726762 3.43675 0.774695 3.49861C0.84281 3.58522 0.772172 3.40954 0.921017 3.40954C1.11023 3.40954 0.865516 3.40706 1.07491 3.40706H3.99882ZM27.0016 25.5926V28.1412C27.9274 28.2402 28.7146 28.2129 29.2645 27.9408C29.8246 27.6612 30.1576 27.0747 30.1576 26.0058C30.1576 25.8524 30.1652 25.7039 30.1702 25.5827C30.1752 25.4911 30.2736 25.5629 30.2257 25.501C30.1576 25.4144 30.2282 25.5901 30.0794 25.5901C29.8902 25.5901 30.1349 25.5926 29.9255 25.5926H27.0016ZM7.91166 15.0739C7.68209 15.0739 7.49792 14.8932 7.49792 14.6705C7.49792 14.4478 7.68461 14.2672 7.91166 14.2672H11.9658C12.1954 14.2672 12.3795 14.4478 12.3795 14.6705C12.3795 14.8932 12.1928 15.0739 11.9658 15.0739H7.91166ZM7.91166 19.2135C7.68461 19.2135 7.50044 19.0329 7.50044 18.8102C7.50044 18.5875 7.68461 18.4069 7.91166 18.4069H19.577C19.8041 18.4069 19.9882 18.5875 19.9882 18.8102C19.9882 19.0329 19.8041 19.2135 19.577 19.2135H7.91166ZM7.91166 23.3557C7.68461 23.3557 7.50044 23.1726 7.50044 22.9499C7.50044 22.7272 7.68461 22.5441 7.91166 22.5441H13.9487C14.1757 22.5441 14.3599 22.7272 14.3599 22.9499C14.3599 23.1751 14.1757 23.3557 13.9487 23.3557H7.91166Z" fill="#002F3D"/>
</svg>
