<svg width="177" height="178" viewBox="0 0 177 178" fill="none" xmlns="http://www.w3.org/2000/svg">
<path d="M69.9123 10.134C78.9752 -2.71133 98.0247 -2.71133 107.088 10.134L107.67 10.9593C112.733 18.1351 121.474 21.7558 130.128 20.2617L131.123 20.0898C146.615 17.4153 160.085 30.8853 157.41 46.3768L157.238 47.3721C155.744 56.0261 159.365 64.7672 166.541 69.83L167.366 70.4123C180.211 79.4752 180.211 98.5247 167.366 107.588L166.541 108.17C159.365 113.233 155.744 121.974 157.238 130.628L157.41 131.623C160.085 147.115 146.615 160.585 131.123 157.91L130.128 157.738C121.474 156.244 112.733 159.865 107.67 167.041L107.088 167.866C98.0247 180.711 78.9752 180.711 69.9123 167.866L69.33 167.041C64.2672 159.865 55.5261 156.244 46.8721 157.738L45.8768 157.91C30.3853 160.585 16.9153 147.115 19.5898 131.623L19.7617 130.628C21.2558 121.974 17.6351 113.233 10.4593 108.17L9.63399 107.588C-3.21133 98.5247 -3.21133 79.4752 9.63399 70.4123L10.4593 69.83C17.6351 64.7672 21.2558 56.0261 19.7617 47.3721L19.5898 46.3768C16.9153 30.8853 30.3853 17.4153 45.8768 20.0898L46.8721 20.2617C55.5261 21.7558 64.2672 18.1351 69.33 10.9593L69.9123 10.134Z" fill="#6AAFEA"/>
<rect width="122.758" height="122.758" transform="translate(27.1211 27.6211)" fill="#6AAFEA"/>
<path d="M73.1399 119.411H73.1349C71.847 119.405 70.6153 118.889 69.7067 117.968L69.7063 117.967L49.2472 97.191L73.1399 119.411ZM73.1399 119.411H73.14H73.14H73.14H73.14H73.1401H73.1401H73.1401H73.1402H73.1402H73.1402H73.1403H73.1403H73.1403H73.1403H73.1404H73.1404H73.1404H73.1405H73.1405H73.1405H73.1406H73.1406H73.1406H73.1406H73.1407H73.1407H73.1407H73.1408H73.1408H73.1408H73.1409H73.1409H73.1409H73.1409H73.141H73.141H73.141H73.1411H73.1411H73.1411H73.1412H73.1412H73.1412H73.1412H73.1413H73.1413H73.1413H73.1414H73.1414H73.1414H73.1415H73.1415H73.1415H73.1415H73.1416H73.1416H73.1416H73.1417H73.1417H73.1417H73.1418H73.1418H73.1418H73.1418H73.1419H73.1419H73.1419H73.142H73.142H73.142H73.1421H73.1421H73.1421H73.1421H73.1422H73.1422H73.1422H73.1423H73.1423H73.1423H73.1424H73.1424H73.1424H73.1424H73.1425H73.1425H73.1425H73.1426H73.1426H73.1426H73.1427H73.1427H73.1427H73.1427H73.1428H73.1428H73.1428H73.1429H73.1429H73.1429H73.143H73.143H73.143H73.143H73.1431H73.1431H73.1431H73.1432H73.1432H73.1432H73.1433H73.1433H73.1433H73.1433H73.1434H73.1434H73.1434H73.1435H73.1435H73.1435H73.1436H73.1436H73.1436H73.1436H73.1437H73.1437H73.1437H73.1438H73.1438H73.1438H73.1439H73.1439H73.1439H73.1439H73.144H73.144H73.144H73.1441H73.1441H73.1441H73.1442H73.1442H73.1442H73.1442H73.1443H73.1443H73.1443H73.1444H73.1444H73.1444H73.1445H73.1445H73.1445H73.1445H73.1446H73.1446H73.1446H73.1447H73.1447H73.1447H73.1448H73.1448H73.1448H73.1448H73.1449H73.1449H73.1449H73.145H73.145H73.145H73.1451H73.1451H73.1451H73.1451H73.1452H73.1452H73.1452H73.1453H73.1453H73.1453H73.1454H73.1454H73.1454H73.1454H73.1455H73.1455H73.1455H73.1456H73.1456H73.1456H73.1457H73.1457H73.1457H73.1458H73.1458H73.1458H73.1458H73.1459H73.1459H73.1459H73.146H73.146H73.146H73.146H73.1461H73.1461H73.1461H73.1462H73.1462H73.1462H73.1463H73.1463H73.1463H73.1464H73.1464H73.1464H73.1464H73.1465H73.1465H73.1465H73.1466H73.1466H73.1466H73.1467H73.1467H73.1467H73.1467H73.1468H73.1468H73.1468H73.1469H73.1469H73.1469H73.147H73.147H73.147H73.147H73.1471H73.1471H73.1471H73.1472H73.1472H73.1472H73.1473H73.1473H73.1473H73.1473H73.1474H73.1474H73.1474H73.1475H73.1475H73.1475H73.1476H73.1476H73.1476H73.1476H73.1477H73.1477H73.1477H73.1478H73.1478H73.1478H73.1479H73.1479H73.1479H73.1479H73.148H73.148H73.148H73.1481H73.1481H73.1481H73.1482H73.1482H73.1482H73.1482H73.1483H73.1483H73.1483H73.1484H73.1484H73.1484H73.1485H73.1485H73.1485H73.1485H73.1486H73.1486H73.1486H73.1487H73.1487H73.1487H73.1488H73.1488H73.1488H73.1488H73.1489H73.1489H73.1489H73.149H73.149H73.149H73.1491H73.1491H73.1491H73.1491H73.1492H73.1492H73.1492H73.1493H73.1493H73.1493H73.1494H73.1494H73.1494H73.1494H73.1495H73.1495H73.1495H73.1496H73.1496H73.1496H73.1497H73.1497H73.1497H73.1497H73.1498H73.1498H73.1498H73.1499H73.1499H73.1499H73.15H73.15H73.15H73.15H73.1501H73.1501H73.1501H73.1502H73.1502H73.1502H73.1503H73.1503H73.1503H73.1503H73.1504H73.1504H73.1504H73.1505H73.1505H73.1505H73.1506H73.1506H73.1506H73.1506H73.1507H73.1507H73.1507H73.1508H73.1508H73.1508H73.1509H73.1509H73.1509H73.1509H73.151H73.151H73.151H73.1511H73.1511H73.1511H73.1512H73.1512H73.1512H73.1512H73.1513H73.1513H73.1513H73.1514H73.1514H73.1514H73.1515H73.1515H73.1515H73.1516H73.1516H73.1516H73.1516H73.1517H73.1517H73.1517H73.1518H73.1518H73.1518H73.1518H73.1519H73.1519H73.1519H73.152H73.152H73.152H73.1521H73.1521H73.1521H73.1522H73.1522H73.1522H73.1522H73.1523H73.1523H73.1523H73.1524H73.1524H73.1524H73.1525H73.1525H73.1525H73.1525H73.1526H73.1526H73.1526H73.1527H73.1527H73.1527H73.1528H73.1528H73.1528H73.1528H73.1529H73.1529H73.1529H73.153H73.153H73.153H73.1531H73.1531H73.1531H73.1531H73.1532H73.1532H73.1532H73.1533H73.1533H73.1533H73.1534H73.1534H73.1534H73.1534H73.1535H73.1535H73.1535H73.1536H73.1536H73.1536H73.1537H73.1537H73.1537H73.1537H73.1538H73.1538H73.1538H73.1539H73.1539H73.1539H73.154H73.154H73.154H73.154H73.1541H73.1541H73.1541H73.1542H73.1542H73.1542H73.1543H73.1543H73.1543H73.1543H73.1544H73.1544H73.1544H73.1545H73.1545H73.1545H73.1546H73.1546H73.1546H73.1546H73.1547H73.1547H73.1547H73.1548H73.1548H73.1548H73.1549H73.1549H73.1549H73.1549H73.155H73.155H73.155H73.1551H73.1551H73.1551H73.1551H73.1552H73.1552H73.1552H73.1553H73.1553C74.4367 119.411 75.669 118.903 76.5741 117.993C76.5747 117.992 76.5752 117.991 76.5758 117.991L127.723 66.8442C129.612 64.955 129.612 61.892 127.723 60.0028C125.833 58.1136 122.771 58.1136 120.881 60.0028L73.1763 107.708M73.1399 119.411L73.1763 107.708M73.1763 107.708L56.1401 90.4018C56.14 90.4017 56.1398 90.4016 56.1397 90.4014C54.2673 88.4972 51.1998 88.4803 49.299 90.3489L49.2978 90.3501C47.3972 92.2248 47.3696 95.287 49.2466 97.1904L73.1763 107.708Z" fill="white" stroke="white" stroke-width="2"/>
</svg>
