<svg width="24" height="23" viewBox="0 0 24 23" fill="none" xmlns="http://www.w3.org/2000/svg">
<path d="M12.0001 10.5662C12.9231 10.5662 13.8253 10.2926 14.5928 9.77977C15.3602 9.26699 15.9583 8.53816 16.3115 7.68544C16.6647 6.83271 16.7572 5.8944 16.5771 4.98916C16.397 4.08391 15.9526 3.25239 15.2999 2.59975C14.6473 1.9471 13.8158 1.50265 12.9105 1.32258C12.0053 1.14252 11.067 1.23493 10.2142 1.58814C9.36152 1.94135 8.63269 2.53949 8.11991 3.30692C7.60713 4.07435 7.33343 4.9766 7.33343 5.89958C7.33491 7.1368 7.82705 8.32292 8.7019 9.19777C9.57675 10.0726 10.7629 10.5648 12.0001 10.5662ZM12.0001 3.09958C12.5539 3.09958 13.0952 3.2638 13.5557 3.57146C14.0162 3.87913 14.375 4.31643 14.587 4.82807C14.7989 5.3397 14.8543 5.90269 14.7463 6.44583C14.6383 6.98898 14.3716 7.48789 13.98 7.87948C13.5884 8.27107 13.0895 8.53774 12.5463 8.64578C12.0032 8.75382 11.4402 8.69837 10.9286 8.48644C10.417 8.27452 9.97965 7.91563 9.67198 7.45518C9.36431 6.99472 9.2001 6.45337 9.2001 5.89958C9.2001 5.15697 9.4951 4.44478 10.0202 3.91968C10.5453 3.39458 11.2575 3.09958 12.0001 3.09958ZM4.53343 21.7662H19.4668C19.7143 21.7662 19.9517 21.6679 20.1267 21.4929C20.3018 21.3178 20.4001 21.0804 20.4001 20.8329C20.4001 18.6051 19.5151 16.4685 17.9398 14.8932C16.3645 13.3179 14.2279 12.4329 12.0001 12.4329C9.77228 12.4329 7.63571 13.3179 6.0604 14.8932C4.48509 16.4685 3.6001 18.6051 3.6001 20.8329C3.6001 21.0804 3.69843 21.3178 3.87346 21.4929C4.0485 21.6679 4.2859 21.7662 4.53343 21.7662ZM12.0001 14.2996C13.5707 14.3015 15.0882 14.8683 16.2755 15.8964C17.4628 16.9246 18.2407 18.3454 18.4672 19.8996H5.53303C5.75951 18.3454 6.53742 16.9246 7.72473 15.8964C8.91203 14.8683 10.4295 14.3015 12.0001 14.2996Z" fill="white"/>
</svg>
