<svg width="469" height="349" viewBox="0 0 469 349" fill="none" xmlns="http://www.w3.org/2000/svg">
<circle cx="234.5" cy="138.054" r="105.242" fill="#EAF9FF"/>
<circle cx="234.5" cy="138.054" r="82.2581" fill="#C7DDF1"/>
<path d="M231.418 241.808C221.756 251.684 208.279 257.813 193.371 257.813C175.576 257.813 159.821 249.081 150.157 235.668C145.387 248.595 132.955 257.813 118.371 257.813C99.6646 257.813 84.5 242.648 84.5 223.942C84.5 205.236 99.6646 190.071 118.371 190.071C126.835 190.071 134.574 193.176 140.512 198.309C143.618 171.872 166.099 151.361 193.371 151.361C211.746 151.361 227.946 160.672 237.51 174.833C245.474 168.471 255.571 164.668 266.556 164.668C286.826 164.668 304.072 177.617 310.471 195.694C315.35 192.887 321.008 191.281 327.04 191.281C344.751 191.281 359.229 205.121 360.249 222.576C362.157 221.894 364.213 221.523 366.355 221.523C376.376 221.523 384.5 229.646 384.5 239.668C384.5 249.689 376.376 257.813 366.355 257.813C359.443 257.813 353.433 253.948 350.37 248.261C344.366 254.168 336.129 257.813 327.04 257.813C315.829 257.813 305.913 252.267 299.887 243.769C291.429 252.434 279.621 257.813 266.556 257.813C252.533 257.813 239.957 251.615 231.418 241.808Z" fill="white"/>
<path d="M84.5 223.942C84.5 205.236 99.6646 190.071 118.371 190.071C126.835 190.071 134.574 193.176 140.512 198.309C143.618 171.872 166.099 151.361 193.371 151.361C211.746 151.361 227.946 160.672 237.51 174.833C245.474 168.471 255.571 164.668 266.556 164.668C286.826 164.668 304.072 177.617 310.471 195.694C315.35 192.887 321.008 191.281 327.04 191.281C344.751 191.281 359.229 205.121 360.249 222.576C362.157 221.894 364.213 221.523 366.355 221.523C376.376 221.523 384.5 229.646 384.5 239.668" stroke="#184680" stroke-width="2.06618" stroke-linecap="round"/>
<path d="M287.921 238.867C288.393 239.34 289.159 239.34 289.631 238.867L295.839 232.66C295.86 232.638 295.894 232.581 295.931 232.509C296.114 232.157 296.193 231.755 296.193 231.359L296.193 86.0381L174.016 86.0381L174.016 230.754L174.016 231.359C174.016 231.964 174.296 232.583 174.372 232.66L180.58 238.867C181.052 239.34 181.818 239.34 182.291 238.867L188.144 233.014L193.998 238.867C194.47 239.34 195.236 239.34 195.708 238.867L201.562 233.014L207.415 238.867C207.888 239.34 208.654 239.34 209.126 238.867L214.979 233.014L220.833 238.867C221.305 239.34 222.071 239.34 222.543 238.867L228.397 233.014L234.25 238.867C234.723 239.34 235.489 239.34 235.961 238.867L241.814 233.014L247.668 238.867C248.14 239.34 248.906 239.34 249.379 238.867L255.232 233.014L261.085 238.867C261.558 239.34 262.324 239.34 262.796 238.867L268.65 233.014L274.503 238.867C274.975 239.34 275.741 239.34 276.214 238.867L282.067 233.014L287.921 238.867Z" fill="#E3E7F7" stroke="#0C2B42" stroke-width="1.54963"/>
<path fill-rule="evenodd" clip-rule="evenodd" d="M218.774 156.2C221.447 156.2 223.613 154.034 223.613 151.361C223.613 148.689 221.447 146.522 218.774 146.522C216.102 146.522 213.936 148.689 213.936 151.361C213.936 154.034 216.102 156.2 218.774 156.2ZM251.436 156.2C254.108 156.2 256.274 154.034 256.274 151.361C256.274 148.689 254.108 146.522 251.436 146.522C248.763 146.522 246.597 148.689 246.597 151.361C246.597 154.034 248.763 156.2 251.436 156.2Z" fill="#0C2B42"/>
<path d="M255.065 182.443C250.705 176.091 243.391 171.926 235.105 171.926C226.819 171.926 219.506 176.091 215.146 182.443" stroke="#0C2B42" stroke-width="2.58272" stroke-linecap="round"/>
<circle cx="195.79" cy="67.8927" r="3.62903" stroke="#0C2B42" stroke-width="1.54963"/>
<circle cx="331.274" cy="181.603" r="2.41935" stroke="#0C2B42" stroke-width="1.54963"/>
<path d="M195.79 107.812H250.226M195.79 120.514H228.451" stroke="#ABC0DC" stroke-width="1.54963" stroke-linecap="round"/>
<path d="M186.113 217.894H284.097M186.113 205.797H244.904" stroke="#ABC0DC" stroke-width="1.54963" stroke-linecap="round"/>
<circle cx="141.96" cy="162.853" r="5.44355" stroke="#0C2B42" stroke-width="1.54963"/>
<path d="M305.913 87.2481H317.968M297.403 76.812V66.6836" stroke="#6E7191" stroke-width="1.54963" stroke-linecap="round"/>
<path d="M305.204 78.957L313.223 70.9385" stroke="#6E7191" stroke-width="1.54963" stroke-linecap="round"/>
<ellipse cx="235.105" cy="263.256" rx="61.0887" ry="5.44355" fill="#ABC0DC"/>
<path d="M123.607 322.756H126.617V343H123.929L113.401 327.586V343H110.405V322.756H113.303L123.607 337.848V322.756ZM137.115 343.28C135.761 343.28 134.576 342.991 133.559 342.412C132.551 341.824 131.767 340.975 131.207 339.864C130.656 338.753 130.381 337.409 130.381 335.832C130.381 334.311 130.642 332.981 131.165 331.842C131.697 330.703 132.467 329.821 133.475 329.196C134.483 328.561 135.701 328.244 137.129 328.244C138.491 328.244 139.672 328.543 140.671 329.14C141.669 329.728 142.444 330.591 142.995 331.73C143.545 332.859 143.821 334.227 143.821 335.832C143.821 337.297 143.559 338.59 143.037 339.71C142.523 340.83 141.767 341.707 140.769 342.342C139.779 342.967 138.561 343.28 137.115 343.28ZM137.129 340.97C137.95 340.97 138.636 340.755 139.187 340.326C139.747 339.887 140.167 339.276 140.447 338.492C140.727 337.699 140.867 336.784 140.867 335.748C140.867 334.787 140.741 333.914 140.489 333.13C140.246 332.337 139.849 331.707 139.299 331.24C138.748 330.773 138.025 330.54 137.129 330.54C136.289 330.54 135.589 330.755 135.029 331.184C134.469 331.604 134.044 332.206 133.755 332.99C133.475 333.765 133.335 334.684 133.335 335.748C133.335 336.691 133.461 337.559 133.713 338.352C133.965 339.145 134.371 339.78 134.931 340.256C135.491 340.732 136.223 340.97 137.129 340.97ZM169.096 343H165.946L162.362 334.53H157.28V343H154.284V322.756H162.32C163.822 322.756 165.068 322.989 166.058 323.456C167.047 323.913 167.784 324.567 168.27 325.416C168.755 326.265 168.998 327.269 168.998 328.426C168.998 329.518 168.811 330.428 168.438 331.156C168.074 331.884 167.598 332.477 167.01 332.934C166.431 333.391 165.82 333.751 165.176 334.012L169.096 343ZM161.508 332.108C162.917 332.108 164.009 331.805 164.784 331.198C165.558 330.582 165.946 329.705 165.946 328.566C165.946 327.446 165.591 326.597 164.882 326.018C164.182 325.439 163.23 325.15 162.026 325.15H157.28V332.108H161.508ZM174.921 336.462C174.921 337.33 175.061 338.109 175.341 338.8C175.63 339.481 176.064 340.023 176.643 340.424C177.221 340.816 177.94 341.012 178.799 341.012C179.657 341.012 180.399 340.816 181.025 340.424C181.659 340.032 182.075 339.449 182.271 338.674H185.043C184.875 339.663 184.478 340.503 183.853 341.194C183.237 341.885 182.49 342.407 181.613 342.762C180.735 343.107 179.816 343.28 178.855 343.28C177.483 343.28 176.274 342.986 175.229 342.398C174.183 341.801 173.367 340.951 172.779 339.85C172.2 338.749 171.911 337.437 171.911 335.916C171.911 334.413 172.177 333.088 172.709 331.94C173.241 330.783 174.011 329.877 175.019 329.224C176.027 328.571 177.24 328.244 178.659 328.244C180.059 328.244 181.235 328.543 182.187 329.14C183.148 329.737 183.876 330.577 184.371 331.66C184.865 332.733 185.113 334.003 185.113 335.468V336.462H174.921ZM174.921 334.516H182.257C182.257 333.76 182.126 333.074 181.865 332.458C181.603 331.833 181.202 331.343 180.661 330.988C180.129 330.624 179.457 330.442 178.645 330.442C177.814 330.442 177.123 330.643 176.573 331.044C176.022 331.445 175.607 331.959 175.327 332.584C175.056 333.209 174.921 333.853 174.921 334.516ZM193.961 343.28C192.953 343.28 192.006 343.121 191.119 342.804C190.242 342.487 189.505 341.987 188.907 341.306C188.319 340.625 187.951 339.752 187.801 338.688H190.475C190.597 339.239 190.825 339.696 191.161 340.06C191.507 340.415 191.917 340.681 192.393 340.858C192.879 341.026 193.397 341.11 193.947 341.11C194.862 341.11 195.599 340.947 196.159 340.62C196.729 340.284 197.013 339.771 197.013 339.08C197.013 338.585 196.859 338.189 196.551 337.89C196.253 337.591 195.777 337.372 195.123 337.232L192.239 336.546C191.045 336.266 190.088 335.823 189.369 335.216C188.651 334.6 188.287 333.741 188.277 332.64C188.277 331.791 188.487 331.035 188.907 330.372C189.337 329.709 189.971 329.191 190.811 328.818C191.651 328.435 192.697 328.244 193.947 328.244C195.581 328.244 196.892 328.608 197.881 329.336C198.871 330.064 199.384 331.119 199.421 332.5H196.831C196.738 331.837 196.435 331.319 195.921 330.946C195.417 330.563 194.75 330.372 193.919 330.372C193.061 330.372 192.356 330.545 191.805 330.89C191.255 331.226 190.979 331.744 190.979 332.444C190.979 332.92 191.18 333.298 191.581 333.578C191.983 333.849 192.585 334.073 193.387 334.25L196.131 334.936C196.841 335.123 197.424 335.37 197.881 335.678C198.339 335.977 198.698 336.308 198.959 336.672C199.221 337.036 199.403 337.414 199.505 337.806C199.617 338.198 199.673 338.567 199.673 338.912C199.673 339.827 199.44 340.611 198.973 341.264C198.516 341.908 197.858 342.407 196.999 342.762C196.15 343.107 195.137 343.28 193.961 343.28ZM208.666 343.28C207.938 343.271 207.242 343.163 206.58 342.958C205.917 342.753 205.324 342.445 204.802 342.034C204.288 341.623 203.878 341.115 203.57 340.508C203.271 339.901 203.122 339.197 203.122 338.394V328.524H206.132V338.072C206.132 338.94 206.402 339.645 206.944 340.186C207.485 340.727 208.302 340.998 209.394 340.998C210.383 340.998 211.176 340.741 211.774 340.228C212.371 339.705 212.67 338.945 212.67 337.946V328.524H215.652V343H213.328L212.992 340.2C212.824 340.956 212.52 341.563 212.082 342.02C211.652 342.468 211.139 342.795 210.542 343C209.954 343.196 209.328 343.289 208.666 343.28ZM223.87 343.196C223.011 343.196 222.321 343.084 221.798 342.86C221.285 342.636 220.893 342.337 220.622 341.964C220.351 341.581 220.169 341.152 220.076 340.676C219.992 340.191 219.95 339.691 219.95 339.178V322.196H222.904V338.87C222.904 339.542 223.035 340.055 223.296 340.41C223.567 340.765 223.977 340.965 224.528 341.012L225.284 341.04V342.944C225.051 343.019 224.808 343.079 224.556 343.126C224.313 343.173 224.085 343.196 223.87 343.196ZM235.727 330.68H232.479L232.493 339.318C232.493 339.794 232.54 340.144 232.633 340.368C232.736 340.583 232.904 340.723 233.137 340.788C233.38 340.844 233.707 340.872 234.117 340.872H235.811V342.818C235.625 342.893 235.345 342.958 234.971 343.014C234.607 343.07 234.136 343.098 233.557 343.098C232.484 343.098 231.649 342.953 231.051 342.664C230.463 342.375 230.053 341.959 229.819 341.418C229.595 340.867 229.483 340.205 229.483 339.43V330.68H227.131V328.524H229.567L230.309 324.268H232.479V328.51H235.727V330.68ZM244.792 343.28C243.784 343.28 242.837 343.121 241.95 342.804C241.073 342.487 240.336 341.987 239.738 341.306C239.15 340.625 238.782 339.752 238.632 338.688H241.306C241.428 339.239 241.656 339.696 241.992 340.06C242.338 340.415 242.748 340.681 243.224 340.858C243.71 341.026 244.228 341.11 244.778 341.11C245.693 341.11 246.43 340.947 246.99 340.62C247.56 340.284 247.844 339.771 247.844 339.08C247.844 338.585 247.69 338.189 247.382 337.89C247.084 337.591 246.608 337.372 245.954 337.232L243.07 336.546C241.876 336.266 240.919 335.823 240.2 335.216C239.482 334.6 239.118 333.741 239.108 332.64C239.108 331.791 239.318 331.035 239.738 330.372C240.168 329.709 240.802 329.191 241.642 328.818C242.482 328.435 243.528 328.244 244.778 328.244C246.412 328.244 247.723 328.608 248.712 329.336C249.702 330.064 250.215 331.119 250.252 332.5H247.662C247.569 331.837 247.266 331.319 246.752 330.946C246.248 330.563 245.581 330.372 244.75 330.372C243.892 330.372 243.187 330.545 242.636 330.89C242.086 331.226 241.81 331.744 241.81 332.444C241.81 332.92 242.011 333.298 242.412 333.578C242.814 333.849 243.416 334.073 244.218 334.25L246.962 334.936C247.672 335.123 248.255 335.37 248.712 335.678C249.17 335.977 249.529 336.308 249.79 336.672C250.052 337.036 250.234 337.414 250.336 337.806C250.448 338.198 250.504 338.567 250.504 338.912C250.504 339.827 250.271 340.611 249.804 341.264C249.347 341.908 248.689 342.407 247.83 342.762C246.981 343.107 245.968 343.28 244.792 343.28ZM268.396 330.68H265.148L265.162 339.318C265.162 339.794 265.208 340.144 265.302 340.368C265.404 340.583 265.572 340.723 265.806 340.788C266.048 340.844 266.375 340.872 266.786 340.872H268.48V342.818C268.293 342.893 268.013 342.958 267.64 343.014C267.276 343.07 266.804 343.098 266.226 343.098C265.152 343.098 264.317 342.953 263.72 342.664C263.132 342.375 262.721 341.959 262.488 341.418C262.264 340.867 262.152 340.205 262.152 339.43V330.68H259.8V328.524H262.236L262.978 324.268H265.148V328.51H268.396V330.68ZM277.706 343.28C276.353 343.28 275.168 342.991 274.15 342.412C273.142 341.824 272.358 340.975 271.798 339.864C271.248 338.753 270.972 337.409 270.972 335.832C270.972 334.311 271.234 332.981 271.756 331.842C272.288 330.703 273.058 329.821 274.066 329.196C275.074 328.561 276.292 328.244 277.72 328.244C279.083 328.244 280.264 328.543 281.262 329.14C282.261 329.728 283.036 330.591 283.586 331.73C284.137 332.859 284.412 334.227 284.412 335.832C284.412 337.297 284.151 338.59 283.628 339.71C283.115 340.83 282.359 341.707 281.36 342.342C280.371 342.967 279.153 343.28 277.706 343.28ZM277.72 340.97C278.542 340.97 279.228 340.755 279.778 340.326C280.338 339.887 280.758 339.276 281.038 338.492C281.318 337.699 281.458 336.784 281.458 335.748C281.458 334.787 281.332 333.914 281.08 333.13C280.838 332.337 280.441 331.707 279.89 331.24C279.34 330.773 278.616 330.54 277.72 330.54C276.88 330.54 276.18 330.755 275.62 331.184C275.06 331.604 274.636 332.206 274.346 332.99C274.066 333.765 273.926 334.684 273.926 335.748C273.926 336.691 274.052 337.559 274.304 338.352C274.556 339.145 274.962 339.78 275.522 340.256C276.082 340.732 276.815 340.97 277.72 340.97ZM299.649 343.28C298.641 343.28 297.694 343.121 296.807 342.804C295.93 342.487 295.193 341.987 294.595 341.306C294.007 340.625 293.639 339.752 293.489 338.688H296.163C296.285 339.239 296.513 339.696 296.849 340.06C297.195 340.415 297.605 340.681 298.081 340.858C298.567 341.026 299.085 341.11 299.635 341.11C300.55 341.11 301.287 340.947 301.847 340.62C302.417 340.284 302.701 339.771 302.701 339.08C302.701 338.585 302.547 338.189 302.239 337.89C301.941 337.591 301.465 337.372 300.811 337.232L297.927 336.546C296.733 336.266 295.776 335.823 295.057 335.216C294.339 334.6 293.975 333.741 293.965 332.64C293.965 331.791 294.175 331.035 294.595 330.372C295.025 329.709 295.659 329.191 296.499 328.818C297.339 328.435 298.385 328.244 299.635 328.244C301.269 328.244 302.58 328.608 303.569 329.336C304.559 330.064 305.072 331.119 305.109 332.5H302.519C302.426 331.837 302.123 331.319 301.609 330.946C301.105 330.563 300.438 330.372 299.607 330.372C298.749 330.372 298.044 330.545 297.493 330.89C296.943 331.226 296.667 331.744 296.667 332.444C296.667 332.92 296.868 333.298 297.269 333.578C297.671 333.849 298.273 334.073 299.075 334.25L301.819 334.936C302.529 335.123 303.112 335.37 303.569 335.678C304.027 335.977 304.386 336.308 304.647 336.672C304.909 337.036 305.091 337.414 305.193 337.806C305.305 338.198 305.361 338.567 305.361 338.912C305.361 339.827 305.128 340.611 304.661 341.264C304.204 341.908 303.546 342.407 302.687 342.762C301.838 343.107 300.825 343.28 299.649 343.28ZM309.034 343V322.196H311.988V330.638C312.221 330.255 312.534 329.891 312.926 329.546C313.327 329.201 313.812 328.921 314.382 328.706C314.96 328.482 315.632 328.37 316.398 328.37C317.34 328.37 318.19 328.547 318.946 328.902C319.711 329.247 320.318 329.751 320.766 330.414C321.223 331.067 321.452 331.847 321.452 332.752V343H318.456V333.298C318.456 332.486 318.176 331.861 317.616 331.422C317.056 330.983 316.337 330.764 315.46 330.764C314.872 330.764 314.312 330.867 313.78 331.072C313.257 331.268 312.832 331.567 312.506 331.968C312.188 332.36 312.03 332.855 312.03 333.452V343H309.034ZM331.463 343.28C330.11 343.28 328.924 342.991 327.907 342.412C326.899 341.824 326.115 340.975 325.555 339.864C325.004 338.753 324.729 337.409 324.729 335.832C324.729 334.311 324.99 332.981 325.513 331.842C326.045 330.703 326.815 329.821 327.823 329.196C328.831 328.561 330.049 328.244 331.477 328.244C332.84 328.244 334.02 328.543 335.019 329.14C336.018 329.728 336.792 330.591 337.343 331.73C337.894 332.859 338.169 334.227 338.169 335.832C338.169 337.297 337.908 338.59 337.385 339.71C336.872 340.83 336.116 341.707 335.117 342.342C334.128 342.967 332.91 343.28 331.463 343.28ZM331.477 340.97C332.298 340.97 332.984 340.755 333.535 340.326C334.095 339.887 334.515 339.276 334.795 338.492C335.075 337.699 335.215 336.784 335.215 335.748C335.215 334.787 335.089 333.914 334.837 333.13C334.594 332.337 334.198 331.707 333.647 331.24C333.096 330.773 332.373 330.54 331.477 330.54C330.637 330.54 329.937 330.755 329.377 331.184C328.817 331.604 328.392 332.206 328.103 332.99C327.823 333.765 327.683 334.684 327.683 335.748C327.683 336.691 327.809 337.559 328.061 338.352C328.313 339.145 328.719 339.78 329.279 340.256C329.839 340.732 330.572 340.97 331.477 340.97ZM360.454 328.524L355.96 343H353.216L350.08 332.836L347.07 343H344.368L339.832 328.524H342.562L345.726 339.066H345.922L349.016 328.524H351.242L354.434 339.038H354.63L357.682 328.524H360.454Z" fill="#5E5E5E"/>
</svg>
